<?xml version="1.0" encoding="UTF-8" standalone="no"?>
<svg
   viewBox="0 0 130 130"
   width="130"
   height="130"
   role="img"
   aria-label="FletchTime"
   version="1.1"
   id="svg16"
   sodipodi:docname="logo.svg"
   xml:space="preserve"
   inkscape:version="1.3.2 (091e20e, 2023-11-25, custom)"
   xmlns:inkscape="http://www.inkscape.org/namespaces/inkscape"
   xmlns:sodipodi="http://sodipodi.sourceforge.net/DTD/sodipodi-0.dtd"
   xmlns="http://www.w3.org/2000/svg"
   xmlns:svg="http://www.w3.org/2000/svg"><defs
     id="defs16" /><sodipodi:namedview
     id="namedview16"
     pagecolor="#505050"
     bordercolor="#eeeeee"
     borderopacity="1"
     inkscape:showpageshadow="0"
     inkscape:pageopacity="0"
     inkscape:pagecheckerboard="0"
     inkscape:deskcolor="#505050"
     inkscape:zoom="5.6692308"
     inkscape:cx="53.622795"
     inkscape:cy="60.943012"
     inkscape:window-width="1920"
     inkscape:window-height="1129"
     inkscape:window-x="337"
     inkscape:window-y="1432"
     inkscape:window-maximized="1"
     inkscape:current-layer="svg16" /><!-- Cadran d'horloge : fond sombre, cerclage et graduations dorés --><!-- Graduations principales (12/3/6/9) --><!-- Graduations secondaires --><!-- Petits traits de mouvement : horizontaux, même longueur, en éventail
       avec le début (le plus proche du cadran) qui s'éloigne progressivement,
       effet dégradé, rapprochés du cadran --><!-- Flèche = aiguille de l'horloge, réduite pour tenir dans le cadran --><g
     id="g20"
     transform="matrix(0.79171051,0,0,0.79171051,58.864507,-213.35603)"><circle
       cx="8.2298059"
       cy="362.82373"
       r="63.668499"
       fill="#141414"
       stroke="#d1a13d"
       stroke-width="6.06366"
       id="circle1-9" /><path
       d="m 61.012494,319.77816 3.908348,-3.90835 2.053696,2.09042 c 0.51813,0.51813 1.035951,0.77704 1.812992,0.77704 0.77704,0 1.29517,-0.25891 1.812992,-0.77704 l 2.331122,-2.07221 c 3.885203,-4.14443 3.885203,-10.61966 0,-14.50487 l -3.885204,-3.8852 c -4.144422,-3.8852 -10.619659,-3.8852 -14.504862,0 l -2.072212,2.07221 c -1.035951,1.03595 -1.035951,2.59003 0,3.62629 l 1.66857,1.69851 -4.032403,4.0324 C 40.543736,301.35631 28.898926,296.31912 16.207364,294.84404 v -5.63463 h 5.180374 c 1.554082,0 2.590033,-1.03595 2.590033,-2.59003 v -10.36106 c 0,-1.55408 -1.035951,-2.59003 -2.590033,-2.59003 H -4.5138236 c -1.5540814,0 -2.5900328,1.03595 -2.5900328,2.59003 v 10.36075 c 0,1.55408 1.0359514,2.59003 2.5900328,2.59003 h 5.1803742 v 5.63463 c -12.7554416,1.4828 -24.4530206,6.56442 -34.0419746,14.19874 l -4.033329,-4.03333 1.812993,-1.81299 c 1.035951,-1.03596 1.035951,-2.59004 0,-3.6263 l -1.812993,-2.07221 c -3.885203,-3.8852 -10.360748,-3.8852 -14.245951,0 l -4.144423,4.14442 c -3.885204,3.88521 -3.885204,10.36075 0,14.24596 l 2.072211,2.07221 c 0.51813,0.51813 1.035952,0.77704 1.812992,0.77704 0.51813,0 1.295171,-0.25891 1.554082,-0.77704 l 2.072211,-2.07221 4.033329,4.03333 c -9.161242,11.50717 -14.652988,26.04876 -14.652988,41.81269 0,18.39438 7.374172,35.02176 19.288076,47.15445 0.109551,0.17745 0.239778,0.34748 0.397161,0.50486 0.181453,0.18146 0.363833,0.32927 0.556395,0.44716 12.167878,11.90835 28.8125343,19.23808 47.1026155,19.23808 18.3332845,0 35.0137375,-7.36399 47.1890215,-19.32202 0.168801,-0.10245 0.32927,-0.2225 0.470297,-0.36322 0.157075,-0.15707 0.28761,-0.32741 0.397161,-0.50486 11.914213,-12.13269 19.288076,-28.75976 19.288076,-47.15445 -3.08e-4,-15.82966 -5.538652,-30.42618 -14.769019,-41.95588 z m 4.149051,-18.65392 3.885204,3.88521 c 2.072211,1.81299 2.072211,4.92146 0,6.99336 l -0.258911,0.25891 -10.878878,-10.87857 c 2.072211,-2.07221 5.180374,-2.07221 7.252585,-0.25891 z m 0.258911,63.20014 h 5.12205 c -0.629533,15.16247 -6.755749,28.96621 -16.42864,39.46058 l -5.011265,-5.01126 c -1.035951,-1.03596 -2.590032,-1.03596 -3.626292,0 -1.035952,1.03595 -1.035952,2.59003 0,3.62629 l 5.011264,5.01126 c -10.49437,9.67289 -24.298414,15.7988 -39.460583,16.42864 v -5.12205 c 0,-1.55408 -1.0359511,-2.59003 -2.5900325,-2.59003 -1.5540814,0 -2.5900328,1.03595 -2.5900328,2.59003 v 5.12205 C -9.3155527,423.21036 -23.119289,417.08414 -33.613659,407.41125 l 5.011265,-5.01126 c 1.035951,-1.03595 1.035951,-2.59003 0,-3.62629 -1.035952,-1.03596 -2.590033,-1.03596 -3.626293,0 l -5.011264,5.01126 c -9.672892,-10.49437 -15.798799,-24.29811 -16.428641,-39.46058 h 5.12205 c 1.554082,0 2.590033,-1.03595 2.590033,-2.59004 0,-1.55408 -1.035951,-2.59003 -2.590033,-2.59003 H -53.6689 c 0.629532,-15.16248 6.755748,-28.96621 16.42864,-39.46058 l 5.011264,5.01126 c 0.51813,0.51813 1.035952,0.77704 1.812993,0.77704 0.77704,0 1.29517,-0.25891 1.812992,-0.77704 1.035951,-1.03595 1.035951,-2.59003 0,-3.62629 l -5.011265,-5.01127 c 9.859591,-9.08779 22.640337,-15.0449 36.7245856,-16.25459 0.1342386,0.0157 0.2694029,0.0265 0.4048759,0.0265 0.8217868,-0.0586 1.5886439,-0.10338 2.3311221,-0.13547 v 5.05693 c 0,1.55409 1.0359514,2.59004 2.5900328,2.59004 1.5540814,0 2.5900326,-1.03595 2.5900326,-2.59004 v -5.06249 c 0.811295,0.0324 1.663015,0.079 2.590033,0.14072 0.101219,0 0.1975,-0.005 0.290387,-0.0136 13.276657,1.17174 25.389604,6.56103 34.979484,14.81439 0.534177,0.51874 1.064651,0.99892 1.573523,1.4544 l -4.983491,4.98411 c -1.035952,1.03595 -1.035952,2.59003 0,3.62629 0.51813,0.51813 1.035951,0.77704 1.812992,0.77704 0.777041,0 1.29517,-0.25891 1.812992,-0.77704 l 4.97053,-4.97053 c 0.469681,0.52215 0.96374,1.06219 1.505015,1.60315 0.09906,0.14874 0.210461,0.27311 0.326801,0.38574 8.634163,10.21571 14.047835,23.22698 14.637867,37.43065 h -5.12205 c -1.554081,0 -2.590033,1.03596 -2.590033,2.59004 0,1.55439 1.035952,2.59065 2.590033,2.59065 z M 57.90896,316.14693 c -0.08332,-0.0833 -0.174973,-0.17498 -0.269712,-0.26971 -0.336676,-0.36106 -0.677364,-0.7181 -1.021756,-1.07175 -0.126832,-0.26046 -0.298719,-0.50795 -0.521524,-0.73075 -0.206758,-0.20676 -0.43481,-0.37063 -0.674896,-0.49468 -0.326493,-0.37309 -0.688474,-0.75945 -1.138096,-1.05941 l 3.626292,-3.62629 3.626293,3.62629 z M -1.9237908,278.84867 H 18.797706 v 5.18037 H 13.617331 3.2565834 -1.9237908 Z m 7.770407,15.54112 v -5.18038 H 11.02699 v 5.18038 c -0.77704,0 -1.8129918,0 -2.5900325,0 -0.7770407,0 -1.8133006,0 -2.5903413,0 z m -58.0197592,18.13115 c -1.812992,-2.07221 -1.812992,-5.18037 0,-6.99336 l 4.144423,-4.14443 c 0.77704,-1.03595 2.072211,-1.55408 3.367073,-1.55408 1.294862,0 2.590033,0.51813 3.367074,1.29517 l 0.25891,0.77704 -0.59497,0.59497 c -0.439129,0.11048 -0.859744,0.34193 -1.218022,0.7002 l -7.252585,7.25259 c -0.358278,0.35828 -0.589724,0.77889 -0.700201,1.21802 l -1.1131,1.1131 z m 9.366766,-2.11449 1.771023,-1.77102 3.626293,3.62629 c -0.51813,0.51813 -1.295171,1.29517 -1.812992,1.813 -0.51813,0.51813 -1.295171,1.03595 -1.812992,1.81299 l -3.626293,-3.62629 z"
       id="path20"
       style="fill:#000000;stroke:#000000;stroke-width:8;stroke-dasharray:none;stroke-opacity:1" /><path
       d="m 61.012494,320.06913 3.908348,-3.90835 2.053696,2.09042 c 0.51813,0.51813 1.035951,0.77704 1.812992,0.77704 0.77704,0 1.29517,-0.25891 1.812992,-0.77704 l 2.331122,-2.07221 c 3.885203,-4.14443 3.885203,-10.61966 0,-14.50487 l -3.885204,-3.8852 c -4.144422,-3.8852 -10.619659,-3.8852 -14.504862,0 l -2.072212,2.07221 c -1.035951,1.03595 -1.035951,2.59003 0,3.62629 l 1.66857,1.69851 -4.032403,4.0324 C 40.543736,301.64728 28.898926,296.61009 16.207364,295.13501 v -5.63463 h 5.180374 c 1.554082,0 2.590033,-1.03595 2.590033,-2.59003 v -10.36106 c 0,-1.55408 -1.035951,-2.59003 -2.590033,-2.59003 H -4.5138236 c -1.5540814,0 -2.5900328,1.03595 -2.5900328,2.59003 v 10.36075 c 0,1.55408 1.0359514,2.59003 2.5900328,2.59003 h 5.1803742 v 5.63463 c -12.7554416,1.4828 -24.4530206,6.56442 -34.0419746,14.19874 l -4.033329,-4.03333 1.812993,-1.81299 c 1.035951,-1.03596 1.035951,-2.59004 0,-3.6263 l -1.812993,-2.07221 c -3.885203,-3.8852 -10.360748,-3.8852 -14.245951,0 l -4.144423,4.14442 c -3.885204,3.88521 -3.885204,10.36075 0,14.24596 l 2.072211,2.07221 c 0.51813,0.51813 1.035952,0.77704 1.812992,0.77704 0.51813,0 1.295171,-0.25891 1.554082,-0.77704 l 2.072211,-2.07221 4.033329,4.03333 c -9.161242,11.50717 -14.652988,26.04876 -14.652988,41.81269 0,18.39438 7.374172,35.02176 19.288076,47.15445 0.109551,0.17745 0.239778,0.34748 0.397161,0.50486 0.181453,0.18146 0.363833,0.32927 0.556395,0.44716 12.167878,11.90835 28.8125343,19.23808 47.1026155,19.23808 18.3332845,0 35.0137375,-7.36399 47.1890215,-19.32202 0.168801,-0.10245 0.32927,-0.2225 0.470297,-0.36322 0.157075,-0.15707 0.28761,-0.32741 0.397161,-0.50486 11.914213,-12.13269 19.288076,-28.75976 19.288076,-47.15445 -3.08e-4,-15.82966 -5.538652,-30.42618 -14.769019,-41.95588 z m 4.149051,-18.65392 3.885204,3.88521 c 2.072211,1.81299 2.072211,4.92146 0,6.99336 l -0.258911,0.25891 -10.878878,-10.87857 c 2.072211,-2.07221 5.180374,-2.07221 7.252585,-0.25891 z m 0.258911,63.20014 h 5.12205 c -0.629533,15.16247 -6.755749,28.96621 -16.42864,39.46058 l -5.011265,-5.01126 c -1.035951,-1.03596 -2.590032,-1.03596 -3.626292,0 -1.035952,1.03595 -1.035952,2.59003 0,3.62629 l 5.011264,5.01126 c -10.49437,9.67289 -24.298414,15.7988 -39.460583,16.42864 v -5.12205 c 0,-1.55408 -1.0359511,-2.59003 -2.5900325,-2.59003 -1.5540814,0 -2.5900328,1.03595 -2.5900328,2.59003 v 5.12205 C -9.3155527,423.50133 -23.119289,417.37511 -33.613659,407.70222 l 5.011265,-5.01126 c 1.035951,-1.03595 1.035951,-2.59003 0,-3.62629 -1.035952,-1.03596 -2.590033,-1.03596 -3.626293,0 l -5.011264,5.01126 c -9.672892,-10.49437 -15.798799,-24.29811 -16.428641,-39.46058 h 5.12205 c 1.554082,0 2.590033,-1.03595 2.590033,-2.59004 0,-1.55408 -1.035951,-2.59003 -2.590033,-2.59003 H -53.6689 c 0.629532,-15.16248 6.755748,-28.96621 16.42864,-39.46058 l 5.011264,5.01126 c 0.51813,0.51813 1.035952,0.77704 1.812993,0.77704 0.77704,0 1.29517,-0.25891 1.812992,-0.77704 1.035951,-1.03595 1.035951,-2.59003 0,-3.62629 l -5.011265,-5.01127 c 9.859591,-9.08779 22.640337,-15.0449 36.7245856,-16.25459 0.1342386,0.0157 0.2694029,0.0265 0.4048759,0.0265 0.8217868,-0.0586 1.5886439,-0.10338 2.3311221,-0.13547 v 5.05693 c 0,1.55409 1.0359514,2.59004 2.5900328,2.59004 1.5540814,0 2.5900326,-1.03595 2.5900326,-2.59004 v -5.06249 c 0.811295,0.0324 1.663015,0.079 2.590033,0.14072 0.101219,0 0.1975,-0.005 0.290387,-0.0136 13.276657,1.17174 25.389604,6.56103 34.979484,14.81439 0.534177,0.51874 1.064651,0.99892 1.573523,1.4544 l -4.983491,4.98411 c -1.035952,1.03595 -1.035952,2.59003 0,3.62629 0.51813,0.51813 1.035951,0.77704 1.812992,0.77704 0.777041,0 1.29517,-0.25891 1.812992,-0.77704 l 4.97053,-4.97053 c 0.469681,0.52215 0.96374,1.06219 1.505015,1.60315 0.09906,0.14874 0.210461,0.27311 0.326801,0.38574 8.634163,10.21571 14.047835,23.22698 14.637867,37.43065 h -5.12205 c -1.554081,0 -2.590033,1.03596 -2.590033,2.59004 0,1.55439 1.035952,2.59065 2.590033,2.59065 z M 57.90896,316.4379 c -0.08332,-0.0833 -0.174973,-0.17498 -0.269712,-0.26971 -0.336676,-0.36106 -0.677364,-0.7181 -1.021756,-1.07175 -0.126832,-0.26046 -0.298719,-0.50795 -0.521524,-0.73075 -0.206758,-0.20676 -0.43481,-0.37063 -0.674896,-0.49468 -0.326493,-0.37309 -0.688474,-0.75945 -1.138096,-1.05941 l 3.626292,-3.62629 3.626293,3.62629 z M -1.9237908,279.13964 H 18.797706 v 5.18037 H 13.617331 3.2565834 -1.9237908 Z m 7.770407,15.54112 v -5.18038 H 11.02699 v 5.18038 c -0.77704,0 -1.8129918,0 -2.5900325,0 -0.7770407,0 -1.8133006,0 -2.5903413,0 z m -58.0197592,18.13115 c -1.812992,-2.07221 -1.812992,-5.18037 0,-6.99336 l 4.144423,-4.14443 c 0.77704,-1.03595 2.072211,-1.55408 3.367073,-1.55408 1.294862,0 2.590033,0.51813 3.367074,1.29517 l 0.25891,0.77704 -0.59497,0.59497 c -0.439129,0.11048 -0.859744,0.34193 -1.218022,0.7002 l -7.252585,7.25259 c -0.358278,0.35828 -0.589724,0.77889 -0.700201,1.21802 l -1.1131,1.1131 z m 9.366766,-2.11449 1.771023,-1.77102 3.626293,3.62629 c -0.51813,0.51813 -1.295171,1.29517 -1.812992,1.813 -0.51813,0.51813 -1.295171,1.03595 -1.812992,1.81299 l -3.626293,-3.62629 z"
       id="path1-1"
       style="fill:#d1a13d;fill-opacity:1;stroke:#141414;stroke-width:0.309;stroke-dasharray:none;stroke-opacity:1" /><path
       fill-rule="evenodd"
       clip-rule="evenodd"
       d="m 42.979353,324.14969 c 0.918939,0.88502 1.334404,2.1706 1.107481,3.4259 l -3.459041,19.14363 c -0.37461,2.07348 -2.359123,3.45067 -4.432761,3.07603 -2.073259,-0.37469 -3.450748,-2.35928 -3.076138,-4.43276 l 1.21863,-6.74377 -35.08216889,36.41455 0.2549271,13.67806 c 0.018854,1.01161 -0.36472771,1.98951 -1.06699931,2.71807 l -14.9735089,15.5424 c -1.070618,1.11128 -2.705228,1.46839 -4.141601,0.90446 -1.436411,-0.56393 -2.391698,-1.93737 -2.420456,-3.48034 l -0.213281,-11.44352 -11.443525,0.21328 c -1.542816,0.0288 -2.951058,-0.87454 -3.568036,-2.28902 -0.616981,-1.41448 -0.321222,-3.06117 0.749395,-4.17245 l 14.973661,-15.54242 c 0.702042,-0.72855 1.664769,-1.14868 2.676453,-1.16754 l 13.6780283,-0.25493 35.0820907,-36.41462 -6.693831,1.469 c -2.057856,0.45165 -4.092309,-0.85063 -4.544304,-2.90871 -0.451612,-2.05809 0.850972,-4.09262 2.908829,-4.54427 l 19.00145,-4.16997 c 1.246115,-0.27346 2.546148,0.0939 3.464706,0.97894 z m -56.705772,53.36084 -4.469002,0.0833 -7.486831,7.77121 4.469003,-0.0833 z m -1.991773,13.06514 0.0833,4.46909 7.4868297,-7.77121 -0.083292,-4.46909 z"
       fill="#000000"
       id="path1-2"
       style="fill:#d1a13d;fill-opacity:1;stroke:#141414;stroke-width:3.41326;stroke-dasharray:none;stroke-opacity:1" /></g></svg>
