<svg xmlns="http://www.w3.org/2000/svg" viewBox="0 0 130 130" width="130" height="130" role="img" aria-label="FletchTime">
  <!-- Cadran d'horloge : fond sombre, cerclage et graduations dorés -->
  <circle cx="65" cy="65" r="42" fill="#141414" stroke="#d1a13d" stroke-width="4"/>

  <!-- Graduations principales (12/3/6/9) -->
  <g stroke="#d1a13d" stroke-width="3.2" stroke-linecap="round">
    <line x1="65" y1="27" x2="65" y2="34"/>
    <line x1="103" y1="65" x2="96" y2="65"/>
    <line x1="65" y1="103" x2="65" y2="96"/>
    <line x1="27" y1="65" x2="34" y2="65"/>
  </g>
  <!-- Graduations secondaires -->
  <g stroke="#a3823f" stroke-width="1.6" stroke-linecap="round">
    <line x1="90.5" y1="39.5" x2="86" y2="44"/>
    <line x1="90.5" y1="90.5" x2="86" y2="86"/>
    <line x1="39.5" y1="90.5" x2="44" y2="86"/>
    <line x1="39.5" y1="39.5" x2="44" y2="44"/>
  </g>

  <!-- Flèche = aiguille de l'horloge, en diagonale du cadran (bas-gauche
       vers haut-droite), empennage côté centre, pointe dépassant le cadran -->
  <g transform="rotate(-55 65 65)">
    <!-- lignes de mouvement, empennage -->
    <g stroke="#d1a13d" stroke-width="2.5" stroke-linecap="round" opacity="0.55">
      <line x1="4" y1="58" x2="16" y2="58"/>
      <line x1="4" y1="65" x2="20" y2="65"/>
      <line x1="4" y1="72" x2="16" y2="72"/>
    </g>
    <!-- empennage (fletching) -->
    <polygon points="22,65 40,50 40,65" fill="#d1a13d"/>
    <polygon points="22,65 40,80 40,65" fill="#a3823f"/>
    <!-- hampe -->
    <rect x="34" y="61.5" width="72" height="7" fill="#d1a13d"/>
    <!-- pointe -->
    <polygon points="100,48 126,65 100,82" fill="#d1a13d"/>
    <!-- lignes de mouvement, pointe -->
    <g stroke="#d1a13d" stroke-width="2.5" stroke-linecap="round" opacity="0.55">
      <line x1="114" y1="58" x2="126" y2="58"/>
      <line x1="110" y1="65" x2="126" y2="65"/>
      <line x1="114" y1="72" x2="126" y2="72"/>
    </g>
  </g>
</svg>
